<?xml version="1.0" encoding="UTF-8"?>
<svg width="25px" height="32px" viewBox="0 0 25 32" version="1.1" xmlns="http://www.w3.org/2000/svg" xmlns:xlink="http://www.w3.org/1999/xlink">
    <!-- Generator: Sketch 48.1 (47250) - http://www.bohemiancoding.com/sketch -->
    <title>ei-lock</title>
    <desc>Created with Sketch.</desc>
    <defs></defs>
    <g id="Page-1" stroke="none" stroke-width="1" fill="none" fill-rule="evenodd">
        <g id="ei-lock" fill="#000000" fill-rule="nonzero">
            <path d="M21.6244303,11.2977257 L20.684571,11.2977257 L20.684571,8.47811128 C20.684571,3.81459736 16.8885098,0.0193044737 12.225874,0.0193044737 C7.56137221,0.0193044737 3.76706717,3.8145974 3.76706717,8.47811128 L3.76706717,11.2977257 L2.82720787,11.2977257 C1.27238615,11.2977257 0.00755682682,12.5624819 0.00755682682,14.1173402 L0.00755682682,29.1553084 C0.00755682682,30.7100936 1.27238615,31.9749229 2.82720787,31.9749229 L21.6245035,31.9749229 C23.1793252,31.9749229 24.444118,30.7100936 24.444118,29.1553084 L24.444118,14.1173402 C24.4440448,12.5624819 23.1792521,11.2977257 21.6244303,11.2977257 Z M5.64671256,8.47811128 C5.64671256,4.84987684 8.59661508,1.89902305 12.2258008,1.89902305 C15.853084,1.89902305 18.8048525,4.84987684 18.8048525,8.47811128 L18.8048525,11.2977257 L5.64671256,11.2977257 L5.64671256,8.47811128 Z M22.5643262,29.1552719 C22.5643262,29.6728384 22.1421798,30.0951312 21.6244303,30.0951312 L2.82713471,30.0951312 C2.30762901,30.0951312 1.88727541,29.672875 1.88727541,29.1552719 L1.88727541,14.1173402 C1.88727541,13.5987858 2.30762901,13.1774444 2.82713471,13.1774444 L21.6244303,13.1774444 C22.1421798,13.1774444 22.5643262,13.5987858 22.5643262,14.1173402 L22.5643262,29.1552719 Z" id="Shape"></path>
            <path d="M12.2256545,27.6102556 C11.5633112,27.6102556 11.0273412,26.9856707 11.0273412,26.2197117 L11.0273412,23.4387336 C11.0273412,22.672921 11.5633112,22.0484092 12.2256545,22.0484092 C12.888144,22.0484092 13.4241507,22.672921 13.4241507,23.4387336 L13.4241507,26.2197117 C13.4241507,26.9856707 12.8881441,27.6102556 12.2256545,27.6102556 Z" id="Shape"></path>
        </g>
    </g>
</svg>