<?xml version="1.0" encoding="utf-8"?>
<svg viewBox="0 0 100 100" x="0px" y="0px" xmlns="http://www.w3.org/2000/svg">
  <circle cx="24.692" cy="31.718" r="5.63" transform="matrix(0, 1, -1, 0, 99.999781, 0.000582)" style="fill: rgb(120, 114, 130);"/>
  <g>
    <path d="M 91.902 51.548 L 53.212 12.858 C 52.681 12.329 51.961 12.034 51.212 12.038 L 7.812 12.038 C 6.264 12.038 5.008 13.29 5.002 14.838 L 5.002 44.188 C 4.998 44.937 5.293 45.657 5.822 46.188 L 44.512 84.868 C 48.476 88.803 54.812 88.991 59.002 85.298 C 63.197 89.01 69.554 88.822 73.522 84.868 L 91.902 66.528 C 96.029 62.387 96.029 55.689 91.902 51.548 Z M 48.492 80.888 L 10.632 42.998 L 10.632 17.658 L 36.002 17.658 L 73.862 55.518 C 75.768 57.462 75.768 60.574 73.862 62.518 L 55.522 80.888 C 53.574 82.813 50.44 82.813 48.492 80.888 Z M 87.922 62.548 L 69.582 80.888 C 67.813 82.639 65.025 82.823 63.042 81.318 L 77.842 66.528 C 81.982 62.385 81.982 55.671 77.842 51.528 L 43.952 17.658 L 50.062 17.658 L 87.922 55.518 C 89.847 57.466 89.847 60.6 87.922 62.548 Z" transform="matrix(0, 1, -1, 0, 99.999791, 0.000582)" style="fill: rgb(120, 114, 130);"/>
  </g>
</svg>