<svg x="0" y="0" viewBox="0 0 100 100"><circle cx="24.69" cy="31.72" r="5.63" transform="matrix(0, 1, -1.000001, 0, 99.999679, 0.004482)" style="fill:#787282"/><path d="M 91.9 51.55 L 53.21 12.86 C 52.679 12.331 51.959 12.036 51.21 12.04 L 7.81 12.04 C 6.262 12.04 5.006 13.292 5 14.84 L 5 44.19 C 4.996 44.939 5.291 45.659 5.82 46.19 L 44.51 84.87 C 48.474 88.805 54.81 88.993 59 85.3 C 63.195 89.012 69.552 88.824 73.52 84.87 L 91.9 66.53 C 96.027 62.389 96.027 55.691 91.9 51.55 Z M 48.49 80.89 L 10.63 43 L 10.63 17.66 L 36 17.66 L 73.86 55.52 C 75.766 57.464 75.766 60.576 73.86 62.52 L 55.52 80.89 C 53.572 82.815 50.438 82.815 48.49 80.89 Z M 87.92 62.55 L 69.58 80.89 C 67.811 82.641 65.023 82.825 63.04 81.32 L 77.84 66.53 C 81.98 62.387 81.98 55.673 77.84 51.53 L 43.95 17.66 L 50.06 17.66 L 87.92 55.52 C 89.845 57.468 89.845 60.602 87.92 62.55 Z" transform="matrix(0, 1, -1, 0, 99.999788, 0.004581)" style="fill:#787282"/></svg>