<svg x="0" y="0" viewBox="0 0 50 50"><path d="M 12.86 25 C 12.86 20.656 16.387 17.133 20.732 17.139 L 26.724 17.139 L 24.169 19.695 C 23.991 19.871 23.991 20.157 24.169 20.334 L 25.127 21.292 C 25.303 21.469 25.59 21.469 25.766 21.292 L 30.708 16.334 C 30.885 16.158 30.885 15.871 30.708 15.695 L 25.766 10.756 C 25.59 10.579 25.303 10.579 25.127 10.756 L 24.169 11.715 C 23.991 11.891 23.991 12.177 24.169 12.354 L 26.724 14.911 L 20.732 14.911 C 12.954 14.907 8.09 23.326 11.978 30.063 C 12.418 30.83 12.961 31.534 13.585 32.159 C 14.2 32.775 15.251 32.493 15.475 31.653 C 15.58 31.264 15.467 30.847 15.183 30.563 C 13.696 29.095 12.859 27.09 12.86 25 Z"/><path d="M 38.58 21.066 C 38.073 19.863 37.337 18.773 36.413 17.852 C 35.8 17.236 34.748 17.518 34.524 18.358 C 34.419 18.747 34.531 19.164 34.816 19.449 C 39.092 23.731 37.13 31.038 31.284 32.599 C 30.622 32.777 29.942 32.864 29.257 32.865 L 23.274 32.865 L 25.83 30.311 C 26.007 30.135 26.007 29.847 25.83 29.671 L 24.871 28.712 C 24.695 28.535 24.409 28.535 24.233 28.712 L 19.291 33.666 C 19.113 33.844 19.113 34.13 19.291 34.307 L 24.233 39.245 C 24.409 39.422 24.695 39.422 24.871 39.245 L 25.83 38.286 C 26.007 38.111 26.007 37.824 25.83 37.648 L 23.274 35.09 L 29.267 35.09 C 36.508 35.09 41.402 27.703 38.58 21.037 Z"/></svg>